<?xml version="1.0" encoding="UTF-8" standalone="no"?>
<!DOCTYPE svg PUBLIC "-//W3C//DTD SVG 1.1//EN" "http://www.w3.org/Graphics/SVG/1.1/DTD/svg11.dtd">
<svg width="100%" height="100%" viewBox="0 0 3118 2908" version="1.1" xmlns="http://www.w3.org/2000/svg" xmlns:xlink="http://www.w3.org/1999/xlink" xml:space="preserve" xmlns:serif="http://www.serif.com/" style="fill-rule:evenodd;clip-rule:evenodd;stroke-linejoin:round;stroke-miterlimit:2;">
    <g transform="matrix(5.55556,0,0,5.55556,-444.243,-201.981)">
        <g>
            <g transform="matrix(1,0,0,1,-2.66359,-5.55692)">
                <path d="M525.146,228.468C520.185,237.331 498.317,261.763 491.005,265.579C483.693,269.394 475.129,272.366 477.11,278.075C479.091,283.785 480.226,290.747 476.847,295.757C473.468,300.767 463.68,313.118 459.223,315.944C454.766,318.769 450.047,323.605 461.874,321.741C473.701,319.877 495.17,301.554 500.821,294.796C506.473,288.038 509.56,290.485 515.037,285.067C520.513,279.649 528.984,253.153 530.722,239.829C532.479,226.362 528.7,222.117 525.146,228.468Z" style="fill:white;fill-rule:nonzero;"/>
            </g>
            <g transform="matrix(1,0,0,1,-2.66359,-5.55692)">
                <path d="M363.497,113.911C369.865,132.707 393.601,132.941 404.006,132.701C416.142,132.421 434.51,140.998 444.516,151.004C450.326,156.814 453.057,149.784 449.034,140.318C445.218,131.342 431.063,120.819 412.985,117.943C404.928,116.662 392.451,114.859 383.617,111.573C380.613,110.455 370.784,105.823 368.609,102.871C365.714,98.943 364.838,95.179 363.009,95.527C360.852,95.938 361.337,107.537 363.497,113.911Z" style="fill:white;fill-rule:nonzero;"/>
            </g>
            <g transform="matrix(1,0,0,1,-2.66359,-5.55692)">
                <path d="M361.464,76.745C371.012,93.609 398.171,86.905 411.49,88.694C420.875,89.955 433.458,95.837 440.286,102.197C443.017,104.742 445.655,110.006 450.291,114.643C451.575,115.927 454.461,116.698 452.813,110.901C449.533,99.362 458.078,106.323 459.81,107.264C462.85,108.917 465.541,110.587 467.827,112.215C476,118.039 478.379,111.974 473.885,107.08C465.773,98.247 445.926,78.692 422.929,69.576C413.165,65.705 399.132,63.153 386.259,63.153C382.214,63.153 369.407,66.063 364.34,69.761C362.306,71.245 359.381,73.066 361.464,76.745Z" style="fill:white;fill-rule:nonzero;"/>
            </g>
            <g transform="matrix(1,0,0,1,-2.66359,-5.55692)">
                <path d="M366.041,151.663C366.181,156.435 368.244,168.186 371.182,175.53C374.119,182.873 389.301,189.394 395.048,190.217C401.679,191.166 407.617,197.394 408.633,204.536C409.537,210.885 413.438,211.958 416.306,205.504C418.044,201.594 417.755,197.683 418.334,191.311C418.584,188.566 420.456,187.343 424.127,186.242C427.799,185.14 433.149,177.25 439.391,173.211C445.633,169.172 457.444,167.068 461.354,158.813C465.295,150.493 464.038,148.807 458.182,155.884C451.05,164.502 432.07,168.818 419.203,166.979C411.789,165.92 409.011,172.321 406.603,174.51C403.417,177.407 399.765,177.166 396.609,175.814C393.568,174.51 391.638,172.052 389.802,166.545C388.885,163.791 385.066,159.956 381.381,157.031C377.492,153.944 374.519,150.531 373.147,148.006C369.526,141.344 365.761,142.068 366.041,151.663Z" style="fill:white;fill-rule:nonzero;"/>
            </g>
            <g transform="matrix(1,0,0,1,-2.66359,-5.55692)">
                <path d="M464.535,210.428C473.452,209.36 489.092,218.108 495.464,223.177C499.768,226.601 512.351,221.904 505.731,217.175C500.203,213.227 489.62,196.8 487.883,190.166C485.956,182.811 479.344,186.361 467.033,189.692C460.47,191.468 445.776,192.471 439.403,192.331C434.382,192.22 432.871,197.47 440.059,203.187C442.564,205.179 441.831,207.131 439.391,207.863C436.951,208.595 430.073,210.383 427.23,212.911C425.352,214.58 420.473,222.064 417.595,222.703C413.33,223.651 410.647,226.437 416.015,225.705C421.384,224.972 423.138,221.513 428.493,218.755C431.679,217.114 435.157,217.29 439.55,216.07C443.942,214.849 444.792,210.67 449.185,208.962C453.577,207.254 459.419,211.041 464.535,210.428Z" style="fill:white;fill-rule:nonzero;"/>
            </g>
            <g transform="matrix(1,0,0,1,-2.66359,-5.55692)">
                <path d="M555.178,313.536C559.233,296.645 555.957,268.139 549.124,253.497C541.493,237.144 537.562,242.08 541.315,255.45C544.266,265.959 548.773,288.666 540.665,305.558C535.977,315.323 533.271,328.261 525.047,333.54C519.044,337.393 507.476,335.248 498.203,336.713C484.355,338.899 478.68,348.914 466.479,345.498C458.671,343.312 446.349,343.92 440.123,339.641C430.752,333.201 429.241,336.268 439.147,344.278C450.617,353.551 470.039,353.81 478.153,359.482C484.101,363.639 487.846,368.784 488.946,373.57C478.508,374.067 468.508,375.638 460.256,378.442C454.56,380.377 448.542,381.371 442.197,382.591C433.778,384.21 425.246,384.826 418.868,388.127C417.583,388.792 417.082,390.372 417.747,391.656C418.212,392.556 419.128,393.072 420.074,393.072C420.48,393.072 420.892,392.978 421.276,392.778C437.743,384.233 463.617,378.257 489.263,376.823C489.229,377.833 489.077,378.815 488.767,379.744C486.74,385.825 485.676,392.271 481.934,396.013C476.592,401.354 478.157,406.43 492.346,399.673C504.673,393.803 511.9,388.698 522,377.716C528.261,378.492 534.208,379.65 539.662,381.226C543.353,382.292 546.818,383.55 550.002,385.012C551.311,385.612 553.652,386.17 553.72,384.726C553.781,383.445 549.788,381.974 548.474,381.371C543.008,378.86 535.833,378.256 529.195,376.795C527.439,376.408 525.625,376.065 523.788,375.741C524.764,374.65 525.759,373.525 526.801,372.319C539.638,357.455 551.125,330.428 555.178,313.536Z" style="fill:white;fill-rule:nonzero;"/>
            </g>
            <g transform="matrix(1,0,0,1,-2.66359,-5.55692)">
                <path d="M503.872,88.286C504.858,92.564 504.356,96.282 505.384,102.892C507.226,114.733 512.521,122.93 519.726,127.562C526.93,132.193 537.187,138.629 541.304,133.483C545.421,128.336 544.172,120.805 548.804,118.746C553.435,116.688 555.382,120.062 558.937,119.677C565.161,119.003 566.142,115.045 570.259,109.385C574.376,103.724 578.493,105.268 576.434,114.016C574.376,122.765 568.715,128.426 568.2,140.262C567.686,152.098 561.51,162.905 552.247,162.905C542.984,162.905 535.264,159.818 529.604,150.04C523.943,140.262 518.797,134.601 508.504,127.911C498.212,121.221 491.007,118.133 489.978,108.87C488.948,99.607 493.765,90.632 497.358,86.051C499.99,82.695 502.848,83.839 503.872,88.286Z" style="fill:white;fill-rule:nonzero;"/>
            </g>
            <g transform="matrix(1,0,0,1,-2.66359,-5.55692)">
                <path d="M479.916,70.146C488.149,64.081 509.968,53.434 526.196,47.898C542.423,42.362 561.553,40.573 570.571,42.924C579.589,45.276 585.178,55.434 590.805,71.468C596.448,87.547 599.659,107.275 599.458,120.967C599.276,133.407 600.19,143.84 585.251,155.866C576.235,163.123 564.54,178.059 566.848,186.405C569.156,194.75 561.893,191.779 560.813,185.481C559.734,179.183 564.527,166.042 570.387,159.585C576.246,153.128 587.225,136.083 588.574,122.825C589.75,111.262 579.312,84.193 574.2,75.42C567.723,64.306 559.375,56.003 548.521,55.621C536.417,55.194 514.973,61.365 505.067,69.667C495.91,77.34 488.69,79.453 481.319,79.574C473.948,79.694 471.464,76.373 479.916,70.146Z" style="fill:white;fill-rule:nonzero;"/>
            </g>
            <g transform="matrix(1,0,0,1,-2.66359,-5.55692)">
                <path d="M221.958,91.948C223.91,98.537 222.742,99.003 221.714,105.614C219.872,117.455 213.905,121.964 201.703,123.184C193.181,124.036 182.393,141.508 178.276,136.362C174.159,131.216 169.735,132.457 168.515,124.892C167.708,119.888 162.796,108.683 159.242,108.298C153.017,107.624 155.794,129.089 151.677,123.428C147.56,117.767 144.251,124.003 149.236,131.481C151.677,135.142 153.358,132.09 153.873,143.927C154.387,155.763 160.603,162.905 169.866,162.905C179.129,162.905 186.849,159.818 192.51,150.04C198.17,140.262 203.317,134.601 213.609,127.911C223.902,121.221 231.106,118.133 232.135,108.87C233.165,99.607 231.652,96.53 228.059,91.948C225.427,88.593 220.662,87.574 221.958,91.948Z" style="fill:white;fill-rule:nonzero;"/>
            </g>
            <g transform="matrix(1,0,0,1,-2.66359,-5.55692)">
                <path d="M161.3,185.481C162.209,179.156 157.586,166.042 151.726,159.585C145.867,153.128 134.888,136.083 133.539,122.825C132.363,111.262 136.64,83.314 141.753,74.541C148.229,63.427 162.738,56.003 173.592,55.621C185.696,55.194 207.14,61.365 217.047,69.667C226.203,77.34 233.423,79.453 240.794,79.574C248.165,79.694 250.649,76.373 242.197,70.146C233.965,64.081 212.145,53.434 195.917,47.898C179.69,42.362 156.406,41.527 147.609,44.606C134.594,49.161 127.436,58.272 124.833,73.89C122.032,90.698 117.675,106.427 122.655,120.967C126.687,132.737 121.923,143.84 136.863,155.866C145.879,163.123 157.868,178.146 155.265,186.405C154.117,190.049 152.043,192.855 151.555,194.93C151.066,197.004 149.114,199.566 147.406,201.274C145.698,202.983 144.112,206.765 143.013,209.205C141.915,211.646 143.257,212.378 144.478,210.304C145.698,208.229 148.504,205.911 150.7,204.325C152.897,202.739 153.141,199.078 154.117,197.492C155.093,195.906 160.308,192.382 161.3,185.481Z" style="fill:white;fill-rule:nonzero;"/>
            </g>
            <g transform="matrix(1,0,0,1,-2.66359,-5.55692)">
                <path d="M189.879,212.514C195.065,235.615 222.294,261.763 229.606,265.579C236.917,269.394 245.482,272.366 243.501,278.075C241.52,283.785 240.384,290.747 243.763,295.757C247.143,300.767 256.93,313.118 261.387,315.944C265.844,318.769 270.563,323.605 258.737,321.741C246.91,319.877 225.441,301.554 219.789,294.796C214.138,288.038 211.05,290.485 205.574,285.067C200.097,279.649 191.626,253.153 189.888,239.829C188.132,226.362 188.285,205.414 189.879,212.514Z" style="fill:white;fill-rule:nonzero;"/>
            </g>
            <g transform="matrix(1,0,0,1,-2.66359,-5.55692)">
                <path d="M309.81,116.351C317.871,115.096 327.576,119.638 336.409,116.351C339.414,115.233 350.91,107.59 353.085,104.637C355.98,100.709 357.152,99.269 359.051,99.09C361.237,98.884 360.288,110.465 358.128,116.839C351.76,135.636 328.598,135.555 318.247,136.642C305.853,137.943 281.302,141.313 272.879,146.448C265.864,150.726 264.233,146.335 267.999,141.893C271.904,137.286 281.014,131.806 284.268,130.505C287.521,129.203 287.521,126.926 284.918,126.926C282.315,126.926 275.808,125.299 273.205,127.251C270.602,129.203 265.07,132.132 255.634,131.806C252.043,131.683 249.452,128.878 254.333,127.577C259.213,126.275 268.324,121.069 273.205,118.791C278.085,116.514 284.268,114.561 289.799,117.164C295.33,119.768 300.63,117.781 309.81,116.351Z" style="fill:white;fill-rule:nonzero;"/>
            </g>
            <g transform="matrix(1,0,0,1,-2.66359,-5.55692)">
                <path d="M359.088,85.631C354.698,88.172 339.451,90.02 329.055,95.449C326.578,96.743 323.632,94.938 328.015,90.829C331.711,87.363 329.394,86.241 325.705,85.977C314.385,85.169 309.995,92.792 299.483,93.486C275.875,95.042 260.307,106.702 249.351,114.508C241.178,120.332 236.331,117.966 242.074,114.624C256.165,106.422 274.685,78.692 297.681,69.576C307.446,65.705 317.869,62.105 330.672,63.452C339.451,64.376 347.537,69.459 354.929,75.235C358.248,77.828 362.747,83.512 359.088,85.631Z" style="fill:white;fill-rule:nonzero;"/>
            </g>
            <g transform="matrix(1,0,0,1,-2.66359,-5.55692)">
                <path d="M354.569,151.663C352.706,156.058 348.769,161.618 348.367,172.479C348.074,180.382 331.31,189.394 325.563,190.217C318.932,191.166 312.994,197.394 311.977,204.536C311.074,210.885 307.173,211.958 304.304,205.504C302.566,201.594 302.856,197.683 302.277,191.311C302.027,188.566 300.304,179.925 296.632,178.823C292.96,177.722 287.256,183.106 281.014,179.067C274.772,175.029 269.835,169.876 265.924,161.62C261.983,153.301 264.066,150.008 270.848,155.972C279.249,163.358 291.704,165.821 301.408,166.979C308.844,167.867 311.6,172.321 314.008,174.51C317.194,177.407 320.845,177.166 324.001,175.814C327.043,174.51 328.972,172.052 330.808,166.545C331.726,163.791 335.545,159.956 339.23,157.031C343.119,153.944 349.732,146.649 351.539,144.415C358.787,135.455 361.057,136.362 354.569,151.663Z" style="fill:white;fill-rule:nonzero;"/>
            </g>
            <g transform="matrix(1,0,0,1,-2.66359,-5.55692)">
                <path d="M256.075,210.428C247.2,209.062 236.669,215.208 230.296,220.277C225.992,223.7 214.865,239.386 220.448,217.235C222.713,208.247 228.913,196.266 234.062,191.89C239.855,186.966 245.358,186.097 257.669,189.428C264.232,191.204 274.835,192.471 281.207,192.331C286.228,192.22 284.96,195.13 280.552,203.187C279.062,205.911 284.186,209.328 286.383,209.816C288.579,210.304 293.948,210.792 296.876,215.184C297.933,216.77 297.608,222.017 299.316,224.702C301.025,227.386 300.536,229.582 298.584,227.63C296.632,225.678 293.216,222.261 290.775,221.529C288.335,220.797 288.823,216.648 285.895,214.452C282.966,212.256 277.841,210.548 275.645,209.328C273.449,208.107 269.3,206.399 266.372,207.619C263.444,208.839 261.642,211.285 256.075,210.428Z" style="fill:white;fill-rule:nonzero;"/>
            </g>
            <g transform="matrix(1,0,0,1,-2.66359,-5.55692)">
                <path d="M361.03,563.705C355.695,560.608 349.385,558.999 342.801,551.375C339.489,547.541 335.998,546.135 332.749,543.246C330.995,541.686 329.107,540.956 327.38,542.107C325.916,543.083 324.531,544.136 324.452,546.662C324.354,549.777 320.576,550.191 316.643,543.408C314.602,539.889 314.501,538.366 313.176,534.69C310.468,527.177 307.945,527.668 306.678,530.644C304.816,535.018 302.014,536.17 300.674,532.239C297.834,523.904 293.865,519.22 290.616,512.284C287.367,505.349 275.34,490.028 275.067,482.232C274.909,477.693 277.919,476.737 278.507,479.961C279.975,488.008 292.079,495.249 296.769,502.939C299.606,507.589 308.993,514.159 316.425,518.508C328.956,525.84 351.484,528.91 361.03,528.91C370.576,528.91 393.104,525.84 405.635,518.508C413.067,514.159 422.004,507.126 425.29,502.939C430.533,496.259 440.803,491.376 443.661,479.961C444.456,476.79 447.267,477.694 447.101,482.232C446.829,489.692 434.693,505.349 431.444,512.284C428.195,519.22 425.23,518.154 422.39,526.489C421.051,530.42 416.696,531.695 415.395,529.092C413.948,526.198 411.592,527.177 408.884,534.69C407.559,538.366 405.31,543.155 403.269,546.674C399.336,553.457 396.12,551.604 396.023,548.489C395.944,545.963 395.837,543.115 395.628,541.417C395.128,537.341 395.821,533.529 390.623,538.034C387.337,540.881 377.086,547.589 372.603,553.108C370.752,555.385 368.729,558.069 368.633,560.659C368.444,565.757 365.399,566.241 361.03,563.705Z" style="fill:white;fill-rule:nonzero;"/>
            </g>
            <g transform="matrix(1,0,0,1,-2.66359,-5.55692)">
                <path d="M467.591,250.686C465.766,255.994 460.773,260.484 452.419,262.313C446.694,263.567 439.869,263.74 435.041,261.601C431.783,260.158 428.634,257.647 427.186,254.703C426.342,252.985 425.783,250.225 426.431,247.805C426.998,245.687 428.407,243.482 430.358,241.447C430.307,241.919 430.215,242.38 430.215,242.867C430.215,250.143 436.114,256.042 443.391,256.042C450.668,256.042 456.567,250.143 456.567,242.867C456.567,239.462 455.241,236.389 453.121,234.051C457.028,234.686 460.349,235.953 461.979,237.08C467.097,240.619 469.15,246.149 467.591,250.686ZM482.762,241.612C476.498,237.998 468.521,231.629 462.166,229.405C453.24,226.281 441.33,227.013 428.41,237.209C422.572,241.816 421.902,250.631 417.312,261.762C418.073,267.845 420.516,274.082 423.189,277.221C428.313,283.241 434.478,287.504 437.506,290.533C440.198,293.224 442.657,296.227 443.692,298.297C444.727,300.368 447.626,301.61 447.419,296.227C447.212,290.843 445.145,286.218 443.33,281.681C442.362,279.263 441.576,277.958 440.409,275.623C439.433,273.67 439.61,269.942 442.539,269.232C448.141,267.874 453.202,267.75 457.949,266.283C465.747,263.873 470.063,260.128 473.404,256.641C476.665,253.238 478.618,249.445 483.329,250.686C488.442,252.033 491.811,252.538 492.672,250.894C494.461,247.478 490.394,246.014 482.762,241.612Z" style="fill:white;fill-rule:nonzero;"/>
            </g>
            <g transform="matrix(1,0,0,1,-2.66359,-5.55692)">
                <path d="M260.135,237.08C261.765,235.953 265.085,234.686 268.992,234.051C266.872,236.389 265.546,239.462 265.546,242.867C265.546,250.143 271.445,256.042 278.722,256.042C285.999,256.042 291.898,250.143 291.898,242.867C291.898,242.38 291.806,241.919 291.755,241.447C293.707,243.482 295.115,245.687 295.682,247.805C296.33,250.225 295.771,252.985 294.927,254.703C293.48,257.647 290.33,260.158 287.072,261.601C282.244,263.74 275.42,263.567 269.694,262.313C261.34,260.484 256.346,255.994 254.523,250.686C252.963,246.149 255.016,240.619 260.135,237.08ZM238.784,250.686C243.607,249.997 245.448,253.238 248.709,256.641C252.05,260.128 256.366,263.873 264.164,266.283C268.911,267.75 273.693,268.689 276.743,271.496C278.962,273.536 279.55,275.522 279.916,278.695C280.215,281.287 279.908,283.841 278.94,286.26C277.124,290.796 274.901,290.843 274.694,296.227C274.487,301.61 277.386,300.368 278.421,298.297C279.456,296.227 281.915,293.224 284.607,290.533C287.635,287.504 293.8,283.241 298.925,277.221C301.597,274.082 304.041,267.845 304.801,261.762C301.513,252.339 297.996,241.491 293.46,237.453C281.165,226.51 268.873,226.281 259.946,229.405C253.593,231.629 246.147,239.14 239.351,241.612C233.509,243.736 230.58,245.688 230.58,247.966C230.58,250.923 236.454,251.019 238.784,250.686Z" style="fill:white;fill-rule:nonzero;"/>
            </g>
            <g transform="matrix(1,0,0,1,-2.66359,-5.55692)">
                <path d="M247.128,141.296C242.637,144.29 235.228,146.293 228.639,147.424C223.28,148.344 220.221,151.277 219.514,154.041C218.178,159.264 217.589,167.141 217.004,173.062C216.658,176.555 214.706,180.132 213.335,181.655C208.121,187.449 203.958,190.074 199.431,192.276C196.392,193.755 196.728,197.104 201.748,196.525C214.121,195.097 221.252,193.049 226.852,187.255C234.075,179.784 234.215,170.796 234.963,164.662C235.928,156.744 242.494,152.11 247.901,146.896C252.135,142.813 251.763,138.206 247.128,141.296Z" style="fill:white;fill-rule:nonzero;"/>
            </g>
            <g transform="matrix(1,0,0,1,-2.66359,-5.55692)">
                <path d="M463.128,128.545C467.619,131.539 477.257,141.076 485.574,143.155C490.849,144.474 497.001,144.052 501.514,152.512C504.052,157.268 503.794,167.141 504.379,173.062C504.725,176.555 506.678,180.132 508.048,181.655C513.262,187.449 537.899,192.489 544.569,206.806C545.997,209.87 545.396,211.464 541.601,208.126C529.927,197.858 500.131,193.049 494.531,187.255C487.308,179.784 486.163,165.169 483.841,159.443C478.643,146.621 467.763,139.359 462.356,134.145C458.121,130.062 458.493,125.456 463.128,128.545Z" style="fill:white;fill-rule:nonzero;"/>
            </g>
            <g transform="matrix(1,0,0,1,-2.66359,-5.55692)">
                <path d="M356.176,186.307C349.831,197.37 338.443,203.715 328.844,210.548C323.752,214.172 320.873,221.773 318.92,227.63C316.968,233.487 319.083,239.832 320.059,244.712C321.035,249.593 321.072,252.549 318.107,256.426C315.992,259.191 324.94,274.972 328.844,277.901C333.845,281.651 333.562,268.302 330.471,259.191C327.382,250.087 324.366,237.596 326.892,234.463C328.515,232.451 330.965,229.839 331.285,227.142C331.907,221.892 333.62,219.888 337.629,218.519C340.268,217.619 342.666,218.491 343.847,220.375C346.252,224.214 348.17,226.397 350.156,222.424C356.013,210.71 361.057,193.953 362.033,187.121C363.009,180.288 360.814,178.22 356.176,186.307Z" style="fill:white;fill-rule:nonzero;"/>
            </g>
            <g transform="matrix(1,0,0,1,-2.66359,-5.55692)">
                <path d="M372.77,194.93C370.028,202.241 365.937,215.103 373.096,232.673C377.062,242.41 381.555,243.085 378.627,224.214C377.678,218.096 378.618,215.904 380.742,214.29C384.809,211.198 388.388,224.702 393.269,232.999C396.66,238.763 397.666,245.642 398.15,253.497C398.8,264.072 399.288,279.365 403.03,279.365C406.117,279.365 403.993,259.878 406.447,251.22C409.212,241.458 408.399,237.229 404.982,235.927C401.424,234.571 398.736,228.145 400.59,221.285C402.217,215.266 400.585,209.754 395.221,208.27C387.575,206.155 386.436,203.715 382.531,196.882C378.627,190.049 375.699,187.121 372.77,194.93Z" style="fill:white;fill-rule:nonzero;"/>
            </g>
            <g transform="matrix(1,0,0,1,-2.66359,-5.55692)">
                <path d="M577.715,209.049C581.865,212.255 585.449,222.203 588.176,227.084C592.075,234.062 594.654,241.353 596.3,244.953C599.096,251.07 612.008,263.464 611.745,275.572C611.482,287.68 603.768,305.682 613.719,319.526C623.67,333.37 629.065,354.686 628.934,360.74C628.802,366.794 622.585,383.315 622.421,390.883C622.256,398.45 604.451,413.199 599.829,423.698C598.907,425.793 597.566,428.362 595.997,431.192C589.706,442.54 580.493,455.755 580.164,470.89C592.777,444.581 612.149,421.784 626.414,409.308C637.432,399.672 647.701,373.261 642.141,359.513C636.582,345.764 639.14,332.865 630.554,323.593C621.968,314.322 618.308,310.541 621.597,293.956C624.886,277.372 620.798,263.319 612.179,255.56C603.561,247.802 584.784,213.241 578.256,199.135C571.987,185.589 577.715,209.049 577.715,209.049Z" style="fill:white;fill-rule:nonzero;"/>
            </g>
            <g transform="matrix(1,0,0,1,-2.66359,-5.55692)">
                <path d="M154.483,214.574C151.646,218.943 140.705,228.189 138.011,232.999C134.158,239.876 127.884,245.751 126.263,249.296C123.507,255.321 110.679,267.581 111.022,279.461C111.366,291.341 119.199,308.948 109.34,322.609C99.481,336.27 94.228,357.229 94.4,363.169C94.572,369.108 100.899,385.274 101.114,392.698C101.328,400.123 119.231,414.461 123.923,424.729C124.859,426.778 126.217,429.289 127.805,432.054C134.172,443.143 143.472,456.04 143.901,470.89C131.114,445.169 111.591,422.945 97.243,410.81C86.161,401.438 77.002,360.384 86.763,344.278C94.329,331.795 85.072,325.622 93.596,316.458C102.121,307.294 102.365,303.424 98.965,287.174C95.565,270.924 101.888,267.505 110.454,259.827C119.021,252.148 143.487,217.906 154.483,207.253C162.292,199.688 155.81,212.531 154.483,214.574Z" style="fill:white;fill-rule:nonzero;"/>
            </g>
            <g transform="matrix(1,0,0,1,-2.66359,-5.55692)">
                <path d="M388.388,437.498C393.269,439.45 404.494,443.843 408.399,440.915C412.303,437.986 419.624,436.034 423.529,435.058C419.624,437.01 416.208,440.426 411.815,443.355C407.423,446.283 402.054,447.747 399.126,445.307C396.197,442.867 391.805,438.962 388.388,437.498Z" style="fill:white;fill-rule:nonzero;"/>
            </g>
            <g transform="matrix(1,0,0,1,-2.66359,-5.55692)">
                <path d="M316.643,416.023C311.762,415.535 305.905,416.023 300.536,416.999C295.168,417.975 287.847,416.511 285.406,415.535C296.632,416.023 301.025,412.607 305.417,412.119C309.81,411.631 311.762,413.095 316.643,416.023Z" style="fill:white;fill-rule:nonzero;"/>
            </g>
            <g transform="matrix(1,0,0,1,-2.66359,-5.55692)">
                <path d="M325.916,437.01C322.3,439.902 317.131,442.379 313.226,443.355C309.322,444.331 301.025,444.331 297.12,442.379C304.929,446.771 310.786,451.164 314.69,450.188C318.595,449.212 323.964,446.283 326.892,442.867C329.82,439.45 330.797,433.105 325.916,437.01Z" style="fill:white;fill-rule:nonzero;"/>
            </g>
            <g transform="matrix(1,0,0,1,-2.66359,-5.55692)">
                <path d="M397.173,402.357C400.102,399.429 402.542,397.477 406.935,397.477C411.327,397.477 416.696,399.917 420.601,398.941C415.232,402.845 411.327,402.845 407.911,403.333C404.494,403.822 402.054,406.262 399.126,407.238C396.197,408.214 393.757,402.845 397.173,402.357Z" style="fill:white;fill-rule:nonzero;"/>
            </g>
            <g transform="matrix(1,0,0,1,-2.66359,-5.55692)">
                <path d="M289.799,475.567C293.704,479.472 302.001,482.4 306.393,480.448C310.786,478.496 318.595,473.127 323.964,471.175C329.332,469.222 335.677,466.782 337.629,467.27C339.582,467.758 341.046,470.687 337.141,470.687C333.237,470.687 330.308,471.175 324.452,475.079C318.595,478.984 315.667,481.912 311.274,484.84C306.881,487.769 301.513,489.721 299.56,486.305C297.608,482.888 290.625,479.18 289.799,475.567Z" style="fill:white;fill-rule:nonzero;"/>
            </g>
            <g transform="matrix(1,0,0,1,-2.66359,-5.55692)">
                <path d="M383.02,472.151C386.632,475.863 388.144,479.533 392.537,481.058C398.165,483.012 402.542,480.448 405.959,478.008C400.651,479.106 391.195,474.774 386.924,470.687C384.666,468.526 380.457,466.355 375.76,465.196C374.016,464.765 369.354,463.274 366.09,463.121C363.745,463.012 361.728,463.335 361.484,464.738C361.285,465.881 363.432,466.937 365.419,466.446C370.238,465.257 379.815,468.857 383.02,472.151Z" style="fill:white;fill-rule:nonzero;"/>
            </g>
            <g transform="matrix(1,0,0,1,-2.66359,-5.55692)">
                <path d="M417.184,477.519C423,476.227 429.711,469.548 433.128,469.548C436.544,469.548 447.119,467.433 449.559,465.48C448.095,470.524 436.707,475.079 432.802,475.567C428.898,476.055 425.969,481.424 419.624,480.936C413.28,480.448 412.792,478.496 417.184,477.519Z" style="fill:white;fill-rule:nonzero;"/>
            </g>
            <g transform="matrix(1,0,0,1,-2.66359,-5.55692)">
                <path d="M418.648,278.877C420.571,283.363 430.85,292.055 431.826,296.447C432.802,300.84 431.338,300.352 428.41,299.864C425.481,299.376 424.505,302.792 426.457,307.673C428.41,312.553 429.874,314.506 429.874,321.827C429.874,329.148 425.481,326.707 425.969,322.315C426.457,317.922 423.331,311.11 419.645,306.774C415.884,302.35 413.093,300.373 414.557,295.493C416.021,290.612 417.356,285.332 413.451,280.451C409.547,275.57 415.72,272.044 418.648,278.877Z" style="fill:white;fill-rule:nonzero;"/>
            </g>
            <g transform="matrix(1,0,0,1,-2.66359,-5.55692)">
                <path d="M310.786,272.044C308.863,276.53 294.192,294.495 293.216,298.888C292.239,303.28 293.704,302.792 296.632,302.304C299.56,301.816 300.677,305.291 298.584,310.113C292.971,323.047 290.494,331.615 290.494,338.936C290.494,346.257 292.927,345.925 295.168,337.445C297.983,326.79 312.429,311.986 315.357,307.105C317.218,304.003 316.179,295.161 310.373,300.138C307.34,302.738 306.557,299.174 306.557,297.317C306.557,290.847 309.81,280.341 313.714,275.46C317.619,270.58 313.714,265.211 310.786,272.044Z" style="fill:white;fill-rule:nonzero;"/>
            </g>
            <g transform="matrix(1,0,0,1,-2.66359,-5.55692)">
                <path d="M165.958,480.574C170.446,485.149 184.374,488.89 188.904,491.195C193.434,493.499 206.479,503.874 211.877,509.985C217.275,516.097 219.122,518.345 223.163,521.43C227.203,524.513 226.966,526.402 221.802,524.242C216.637,522.082 206.366,518.751 204.452,514.014C202.816,509.967 199.243,510.196 196.56,510.14C193.878,510.084 190.216,511.587 185.051,509.427C179.887,507.267 181.095,502.32 178.958,498.802C176.821,495.285 168.676,490.3 162.844,482.285C157.012,474.271 159.002,473.483 165.958,480.574Z" style="fill:white;fill-rule:nonzero;"/>
            </g>
            <g transform="matrix(1,0,0,1,-2.66359,-5.55692)">
                <path d="M555.504,480.574C551.016,485.149 537.089,488.89 532.559,491.195C528.029,493.499 514.984,503.874 509.586,509.985C504.188,516.097 502.34,518.345 498.3,521.43C494.26,524.513 494.496,526.402 499.661,524.242C504.825,522.082 515.096,518.751 517.01,514.014C518.646,509.967 522.219,510.196 524.902,510.14C527.585,510.084 531.247,511.587 536.411,509.427C541.576,507.267 540.368,502.32 542.505,498.802C544.642,495.285 552.786,490.3 558.618,482.285C564.45,474.271 562.461,473.483 555.504,480.574Z" style="fill:white;fill-rule:nonzero;"/>
            </g>
            <g transform="matrix(1,0,0,1,-2.66359,-5.55692)">
                <path d="M515.284,432.292C514.341,442.008 516.749,455.394 506.012,458.322C504.275,458.796 502.677,459.266 501.169,459.747C491.3,451.553 480.005,443.835 467.788,437.682C470.263,432.943 471.999,427.797 472.986,422.368C473.594,419.023 473.543,414.493 473.134,409.666C476.543,410.439 480.259,411.234 484.415,411.997C492.971,413.567 505.439,416.531 513.984,419.928C515.305,420.453 516.682,420.981 518.086,421.519C516.773,424.409 515.698,428.026 515.284,432.292ZM594.045,301.768C589.116,292.064 589.564,281.404 589.99,277.147C590.415,272.89 590.415,271.187 587.01,266.504C583.604,261.822 575.614,244.188 568.844,235.726C563.736,229.34 557.991,233.779 561.822,241.016C565.654,248.253 574.444,274.347 575.871,287.844C576.908,297.663 573.479,319.472 573.479,328.61C573.479,337.167 577.148,353.907 575.603,362.211C574.335,369.024 569.81,377.08 561.822,383.628C556.68,387.844 558.3,393.913 560.734,398.901C564.596,406.819 563.951,416.834 562.674,425.773C562.176,429.257 560.215,434.537 557.542,440.106C552.04,436.296 546.342,432.771 540.509,429.544C535.176,426.594 529.729,423.915 524.237,421.451C524.482,419.958 524.839,418.518 525.372,417.162C527.609,411.466 522.985,412.72 519.235,419.272C517.65,418.607 516.065,417.938 514.476,417.313C506.533,414.187 498.552,411.56 490.698,409.43C484.591,407.774 478.565,406.426 472.69,405.37C472.211,401.421 471.556,397.446 470.871,393.898C468.057,379.313 463.512,384.463 464.852,395.036C465.231,398.026 465.474,401.104 465.499,404.215C456.601,402.959 448.15,402.417 440.447,402.6C434.497,402.741 428.991,403.309 424.062,404.305C422.645,404.591 421.728,405.972 422.013,407.391C422.297,408.808 423.676,409.721 425.099,409.44C428.187,408.831 437.042,405.281 440.306,404.981C448.991,404.183 456.165,405.699 465.416,407.868C465.009,415.606 463.018,423.421 458.019,430.502C457.534,431.19 457.001,431.87 456.447,432.547C439.853,425.9 421.943,422.491 403.815,424.759C402.381,424.938 401.363,426.247 401.543,427.683C401.722,429.119 403.035,430.132 404.467,429.956C407.445,429.59 414.4,427.883 417.367,427.554C420.845,427.167 423.496,429.362 426.799,429.691C435.74,430.584 444.665,432.757 453.492,435.807C448.35,440.944 441.588,445.47 435.243,448.398C425.827,452.744 407.545,456.735 396.879,453.044C384.794,448.862 376.14,439.984 369.852,434.575C366.991,432.113 365.799,428.72 365.348,424.666C364.898,420.612 364.447,412.954 367.6,406.648C370.753,400.342 377.961,393.135 386.068,391.333C394.176,389.531 402.284,386.378 406.338,383.225C408.591,381.472 411.369,378.984 413.343,375.454C419.936,368.636 418.048,353.602 413.036,341.349C409.9,333.685 404.346,332.443 403.518,320.85C402.69,309.258 399.037,315.776 398.444,318.327C397.334,323.106 398.512,328.88 405.203,335.9C410.726,341.694 408.536,359.596 404.494,364.044C398.15,367.684 389.364,369.657 383.02,369.901C379.399,370.04 376.819,371.665 373.437,373.556C370.154,375.39 366.485,375.969 361.947,375.969C357.409,375.969 353.45,375.1 349.974,373.266C346.547,371.457 342.87,370.387 338.362,368.925C333.051,367.203 326.124,367.285 321.035,363.8C320.189,363.221 318.605,361.64 318.17,360.856C315.682,356.377 312.608,342.079 318.498,335.9C325.188,328.88 326.367,323.106 325.256,318.327C324.664,315.776 316.719,310.789 315.891,322.382C315.063,333.975 313.921,338.81 310.786,346.474C306.364,357.283 303.403,365.097 308.224,372.716C310.076,377.765 313.681,381.052 316.475,383.225C320.529,386.378 328.637,389.531 336.745,391.333C344.853,393.135 352.06,400.342 355.213,406.648C358.366,412.954 357.916,420.612 357.465,424.666C357.015,428.72 355.025,431.879 352.961,434.575C348.526,440.371 333.799,449.987 325.934,453.044C313.029,458.06 299.358,453.044 290.8,447.188C284.389,442.802 276.805,438.632 271.756,433.469C276.135,431.107 280.611,429.17 285.895,428.225C293.636,426.84 301.301,429.529 308.59,430.421C310.023,430.597 311.335,429.584 311.514,428.148C311.693,426.713 310.675,425.403 309.241,425.224C296.115,423.586 282.495,425.787 269.228,430.461C268.639,429.634 268.109,428.784 267.673,427.899C263.676,419.77 260.381,413.791 258.752,407.078C265.494,406.561 271.897,406.363 277.597,406.262C284.285,406.143 290.525,408.459 295.512,409.44C296.931,409.72 298.313,408.808 298.598,407.391C298.884,405.973 297.966,404.591 296.549,404.305C287.427,402.463 273.309,402.044 258.114,403.819C257.607,400.498 257.496,396.919 257.911,392.759C259.01,381.777 256.325,380.313 252.177,389.342C250.525,392.938 249.637,396.013 249.198,398.913C242.936,395.302 236.176,389.284 234.35,383.806C233.522,381.32 233.294,377.811 233.888,374.12C236.743,374.261 239.603,374.469 242.457,374.782C254.012,376.049 266.109,381.215 276.245,384.04C280.905,385.339 285.32,386.784 289.403,388.355C292.989,389.735 304.973,394.35 307.988,395.914C308.372,396.113 308.785,396.208 309.191,396.208C310.137,396.208 311.052,395.693 311.518,394.792C312.183,393.508 311.681,391.928 310.396,391.263C304.388,388.153 286.33,384.219 278.329,381.859C265.329,378.024 252.459,373.317 237.238,372.09C236.273,372.012 235.307,371.952 234.342,371.887C235.512,367.236 238.052,362.561 242.458,359.482C250.572,353.81 259.18,341.987 273.53,349.809C281.243,354.013 281.99,348.833 276.241,344.617C270.149,340.15 262.116,337.77 254.008,337.77C245.9,337.77 231.455,343.238 218.81,337.185C204.362,330.269 194.486,318.266 186.378,301.374C178.27,284.483 177.972,267.253 174.892,256.781C171.513,245.294 166.784,247.997 164.757,257.456C162.73,266.916 161.378,296.645 165.432,313.536C169.486,330.428 180.973,357.455 193.81,372.319C194.029,372.573 194.261,372.823 194.487,373.074C184.771,374.497 175.857,376.836 168.423,380.251C167.108,380.855 166.531,382.41 167.136,383.724C167.74,385.039 169.301,385.611 170.609,385.012C178.408,381.435 187.761,378.543 197.952,376.605C211.591,389.396 233.719,399.335 246.512,405.427C246.608,405.473 246.695,405.51 246.789,405.554C235.274,407.708 223.695,411.159 213.661,416.267C200.519,422.958 188.958,429.607 176.324,435.302C174.181,436.268 171.054,437.326 167.703,438.462C165.429,433.509 163.792,428.912 163.344,425.773C162.067,416.834 161.422,406.819 165.284,398.901C167.717,393.913 169.338,387.844 164.195,383.628C156.208,377.08 151.682,369.024 150.415,362.211C148.87,353.907 152.539,337.167 152.539,328.61C152.539,319.472 149.109,297.663 150.147,287.844C151.573,274.347 163.007,237.501 171.493,225.715C176.277,219.069 174.715,212.257 169.607,218.643C162.837,227.105 142.414,261.822 139.008,266.504C135.603,271.187 135.603,272.89 136.028,277.147C136.454,281.404 136.902,292.064 131.973,301.768C122.704,320.017 117.225,348.229 122.125,361.728C126.856,374.763 128.979,385.963 129.366,396.005C129.744,405.858 132.616,416.457 141.918,424.971C146.755,429.398 151.314,435.845 156.215,442.772C154.459,443.578 152.936,444.409 151.85,445.265C150.715,446.16 150.52,447.808 151.415,448.943C151.932,449.598 152.699,449.941 153.473,449.941C154.041,449.941 154.613,449.757 155.093,449.378C156.261,448.458 157.559,447.544 158.957,446.633C164.871,454.896 171.41,463.432 179.574,469.772C183.148,472.547 189.921,468.479 183.436,462.627C178.762,458.408 173.05,449.442 168.891,440.964C180.85,434.79 195.405,428.829 204.782,423.089C213.151,417.967 222.279,413.438 231.719,411.143C237.469,409.744 243.304,408.757 249.028,408.048C249.307,411.428 249.811,415.045 250.103,419.44C250.502,425.45 252.063,431.246 254.67,436.608C247.193,440.282 239.948,444.631 233.087,449.38C232.746,447.389 232.533,445.777 232.533,444.819C232.533,439.613 228.466,440.264 227.001,444.331C224.753,450.577 221.145,449.537 216.589,446.283C212.034,443.029 207.338,439.756 201.297,437.01C194.138,433.756 189.583,437.01 197.392,441.565C205.201,446.121 206.503,454.58 208.455,462.389C209.124,465.065 210.175,466.212 211.608,466.617C209.774,468.314 207.996,470.021 206.284,471.733C205.261,472.756 205.261,474.413 206.284,475.436C206.796,475.948 207.466,476.203 208.136,476.203C208.806,476.203 209.476,475.948 209.988,475.436C212.239,473.185 214.304,469.706 216.549,466.459C218.678,466.163 221.186,465.85 224.073,466.294C232.533,467.595 232.533,476.706 233.834,483.214C235.136,489.721 236.437,493.626 241.643,495.578C246.849,497.53 256.611,500.784 263.118,501.435C269.626,502.085 269.951,499.97 263.118,498.018C259.954,497.114 254.566,493.104 252.055,487.281C250.06,482.653 246.472,478.848 242.457,476.706C240.016,475.405 238.002,473.166 237.251,469.548C236.213,464.551 234.749,458.056 233.727,452.839C240.637,449.314 248.065,446.448 255.348,442.778C256.087,442.405 256.81,442.027 257.521,441.646C261.377,447.575 266.646,452.801 273.242,456.923C285.241,464.423 299.865,467.422 311.07,465.497C319.391,464.067 327.189,458.982 332.24,456.197C339.424,452.236 355.108,447.311 362.372,447.311C369.635,447.311 384.045,452.799 390.573,456.197C395.69,458.86 403.552,464.282 411.744,465.497C424.728,467.422 437.182,464.889 449.663,457.111C456.622,452.775 462.075,447.185 466.047,440.725C470.322,442.589 474.563,444.62 478.762,446.771C484.276,449.597 491.471,454.666 496.169,458.404C496.997,459.062 497.806,459.809 498.601,460.609C492.164,462.907 487.497,465.645 481.934,470.361C475.275,476.007 469.895,480.285 464.852,482.888C459.794,485.499 466.453,487.87 470.876,485.343C475.299,482.815 479.721,481.552 486.039,479.025C492.357,476.497 498.736,467.719 502.27,468.897C503.782,469.401 505.235,469.761 506.626,470.003C507.364,470.862 508.094,471.67 508.818,472.395C509.33,472.906 510.508,474.052 511.381,474.713C512.109,475.265 513.648,475.687 514.326,475.436C515.732,474.916 515.349,472.756 514.326,471.733C513.801,471.207 513.258,470.681 512.719,470.156C516.682,469.514 519.43,467.227 520.156,463.23C521.419,456.28 524.055,450.404 529.927,448.073C540.99,443.68 537.085,440.101 530.09,439.938C527.695,439.883 524.707,436.931 524.232,432.78C523.88,429.689 523.732,426.67 523.953,423.817C529.394,426.033 534.809,428.6 538.956,432.048C544.341,436.524 549.746,440.553 555.221,444.678C551.328,451.95 546.576,459.022 542.582,462.627C536.097,468.479 542.869,472.547 546.444,469.772C553.221,464.509 558.877,457.732 563.987,450.855C564.066,450.862 564.145,450.874 564.224,450.874C565.003,450.874 565.776,450.528 566.292,449.865C566.897,449.089 566.984,448.084 566.626,447.237C572.778,438.674 578.235,430.338 584.1,424.971C593.402,416.457 596.273,405.858 596.652,396.005C597.038,385.963 599.162,374.763 603.893,361.728C608.793,348.229 603.314,320.017 594.045,301.768Z" style="fill:white;fill-rule:nonzero;"/>
            </g>
            <g transform="matrix(1,0,0,1,-2.66359,-5.55692)">
                <path d="M166.298,202.991C168.74,198.455 171.496,189.822 172.536,185.317C173.575,180.812 178.08,180.466 182.585,176.654C187.09,172.842 193.328,162.446 195.061,158.287C196.793,154.129 201.991,153.436 199.565,157.594C197.14,161.753 195.061,167.99 195.061,171.802C195.061,175.614 189.516,177 187.09,180.466C184.664,183.931 185.704,190.862 181.892,192.248C178.08,193.634 173.229,200.911 169.07,205.07C164.912,209.228 163.872,207.496 166.298,202.991Z" style="fill:white;fill-rule:nonzero;"/>
            </g>
            <g transform="matrix(1,0,0,1,-2.66359,-5.55692)">
                <path d="M562.043,196.175C558.781,193.904 557.884,185.433 552.917,179.657C549.482,175.663 539.518,171.34 536.283,166.72C533.049,162.099 525.425,153.667 522.075,149.855C518.598,145.898 516.638,145.748 520.573,151.126C524.039,155.862 525.656,160.251 528.891,169.03C532.125,177.809 536.745,177.347 539.98,180.119C543.214,182.891 543.035,186.986 545.524,190.284C550.145,196.406 558.577,198.486 562.62,202.298C565.18,204.711 566.317,208.766 568.165,213.387C570.013,218.007 574.171,215.697 571.861,210.152C569.551,204.608 568.511,200.68 562.043,196.175Z" style="fill:white;fill-rule:nonzero;"/>
            </g>
        </g>
    </g>
</svg>
