<svg viewBox="0 0 593 582" fill="none" xmlns="http://www.w3.org/2000/svg">
<path opacity="0.09" d="M61.23 470.56C61.23 333.78 172.11 222.9 308.89 222.9C445.67 222.9 556.55 333.78 556.55 470.56" fill="#2A94F4"/>
<path d="M423.78 394.28C422.21 394.28 420.67 394.37 419.15 394.54C416.23 387.53 412.03 381.2 406.84 375.81C406.92 374.78 406.97 373.74 406.97 372.68C406.97 349.48 388.17 330.68 364.97 330.68C341.78 330.68 322.97 349.48 322.97 372.68C316.05 378.87 310.57 386.64 307.07 395.42C300.7 396.93 294.88 399.88 290 403.93C289.84 403.71 289.69 403.49 289.54 403.28C294.72 396.29 297.79 387.65 297.79 378.28C297.79 355.08 278.99 336.28 255.79 336.28C232.59 336.28 213.79 355.08 213.79 378.28C213.79 382.02 214.28 385.64 215.2 389.09C212.61 388.59 209.94 388.32 207.21 388.32C184.01 388.32 165.21 407.12 165.21 430.32C165.21 453.52 184.01 472.32 207.21 472.32C216.91 472.32 225.83 469.03 232.94 463.51C239.52 467.79 247.36 470.28 255.8 470.28C265.98 470.28 275.32 466.65 282.59 460.63C290.18 471.31 302.66 478.28 316.78 478.28C324.43 478.28 331.6 476.22 337.78 472.65C345.53 476.26 354.16 478.28 363.28 478.28C375.59 478.28 387.04 474.59 396.59 468.28C403.92 474.51 413.41 478.28 423.78 478.28C446.98 478.28 465.78 459.48 465.78 436.28C465.78 413.08 446.98 394.28 423.78 394.28Z" fill="#F2F2F2"/>
<path d="M346.63 69.23H274.92V329.45H346.63V69.23Z" fill="#2A94F4"/>
<path d="M310.78 0C279.22 31.56 274.92 69.23 274.92 69.23H310.78H346.64C346.64 69.23 342.34 31.56 310.78 0Z" fill="#0B4870"/>
<g opacity="0.54">
<g opacity="0.54">
<path opacity="0.54" d="M328.12 124.29C328.12 133.87 320.36 141.63 310.78 141.63C301.2 141.63 293.44 133.87 293.44 124.29C293.44 114.71 301.2 106.95 310.78 106.95C320.36 106.95 328.12 114.71 328.12 124.29Z" fill="#D3D3D3"/>
</g>
</g>
<g opacity="0.54">
<g opacity="0.54">
<path opacity="0.54" d="M310.78 193.68C320.357 193.68 328.12 185.917 328.12 176.34C328.12 166.763 320.357 159 310.78 159C301.203 159 293.44 166.763 293.44 176.34C293.44 185.917 301.203 193.68 310.78 193.68Z" fill="#D3D3D3"/>
</g>
</g>
<path d="M323.7 176.34C323.7 183.48 317.92 189.26 310.78 189.26C303.64 189.26 297.86 183.48 297.86 176.34C297.86 169.21 303.64 163.42 310.78 163.42C317.92 163.42 323.7 169.21 323.7 176.34Z" fill="#D3D3D3"/>
<path d="M323.7 124.29C323.7 131.42 317.92 137.21 310.78 137.21C303.64 137.21 297.86 131.43 297.86 124.29C297.86 117.15 303.64 111.37 310.78 111.37C317.92 111.37 323.7 117.15 323.7 124.29Z" fill="#D3D3D3"/>
<path d="M282.73 330.24H267.11V396.55H282.73V330.24Z" fill="#FCD2B1"/>
<path d="M318.59 330.24H302.97V396.55H318.59V330.24Z" fill="#FCD2B1"/>
<path d="M354.45 330.24H338.83V396.55H354.45V330.24Z" fill="#FCD2B1"/>
<path d="M323.7 337.11H297.86C297.86 329.97 303.64 324.19 310.78 324.19C317.92 324.19 323.7 329.98 323.7 337.11Z" fill="#0B4870"/>
<path d="M359.56 337.11H333.72C333.72 329.97 339.51 324.19 346.64 324.19C353.77 324.19 359.56 329.98 359.56 337.11Z" fill="#0B4870"/>
<path d="M287.84 337.11H262C262 329.97 267.78 324.19 274.92 324.19C282.06 324.19 287.84 329.98 287.84 337.11Z" fill="#0B4870"/>
<path d="M390.71 470.92H364.6V187.28H390.71V470.92ZM366.38 469.14H388.92V189.07H366.38V469.14Z" fill="#2A94F4"/>
<path d="M389.261 456.216L364.934 469.04L365.988 471.039L390.314 458.216L389.261 456.216Z" fill="#2A94F4"/>
<path d="M389.261 412.867L364.934 425.69L365.988 427.69L390.314 414.866L389.261 412.867Z" fill="#2A94F4"/>
<path d="M389.261 369.518L364.935 382.341L365.988 384.341L390.315 371.517L389.261 369.518Z" fill="#2A94F4"/>
<path d="M389.295 326.195L364.972 339.027L366.026 341.026L390.35 328.194L389.295 326.195Z" fill="#2A94F4"/>
<path d="M389.299 282.858L364.975 295.689L366.03 297.688L390.353 284.857L389.299 282.858Z" fill="#2A94F4"/>
<path d="M389.277 239.433L364.954 252.262L366.008 254.261L390.332 241.432L389.277 239.433Z" fill="#2A94F4"/>
<path d="M389.275 196.085L364.951 208.914L366.005 210.913L390.329 198.084L389.275 196.085Z" fill="#2A94F4"/>
<path d="M250.98 470.92H224.87V187.28H250.98V470.92ZM226.65 469.14H249.19V189.07H226.65V469.14Z" fill="#2A94F4"/>
<path d="M249.541 456.209L225.215 469.032L226.269 471.032L250.595 458.208L249.541 456.209Z" fill="#2A94F4"/>
<path d="M249.541 412.86L225.215 425.683L226.269 427.682L250.595 414.859L249.541 412.86Z" fill="#2A94F4"/>
<path d="M249.542 369.511L225.215 382.334L226.269 384.333L250.596 371.51L249.542 369.511Z" fill="#2A94F4"/>
<path d="M249.569 326.188L225.245 339.02L226.3 341.019L250.623 328.187L249.569 326.188Z" fill="#2A94F4"/>
<path d="M249.571 282.85L225.248 295.682L226.302 297.681L250.626 284.849L249.571 282.85Z" fill="#2A94F4"/>
<path d="M249.561 239.433L225.237 252.262L226.292 254.261L250.615 241.432L249.561 239.433Z" fill="#2A94F4"/>
<path d="M249.559 196.085L225.235 208.914L226.29 210.913L250.613 198.084L249.559 196.085Z" fill="#2A94F4"/>
<path d="M565.28 525.28H36.2798C21.0898 525.28 8.77979 512.97 8.77979 497.78C8.77979 482.59 21.0898 470.28 36.2798 470.28H565.28C580.47 470.28 592.78 482.59 592.78 497.78C592.78 512.97 580.47 525.28 565.28 525.28Z" fill="#F2F2F2"/>
<path d="M147.39 283.68C147.38 283.68 147.38 283.68 147.37 283.68C147.45 283.71 147.46 283.72 147.39 283.68Z" fill="#0B4870"/>
<path d="M98.6297 457.6L98.6497 463.67C98.6497 464.91 98.4897 466.14 98.1497 467.33L97.6197 469.2C97.1897 470.74 98.3397 472.26 99.9397 472.26C104.08 472.25 111.15 472.26 112.97 472.26C113.27 472.26 113.56 472.06 113.59 471.76C113.74 469.99 108.62 468.8 104.76 467.31C101.82 466.17 101.98 460.89 102.34 457.8C102.48 456.63 101.5 455.64 100.34 455.74C99.3697 455.82 98.6297 456.63 98.6297 457.6Z" fill="#FCD2B1"/>
<path d="M70.1997 455.9L68.1097 462.85C68.0197 463.16 67.8797 463.45 67.6997 463.71L66.2197 465.91C65.2797 467.31 65.9597 469.22 67.5697 469.71C67.5697 469.71 70.5597 470.76 73.6497 471.78C76.8097 472.82 80.7797 471.95 80.7797 471.12C80.7797 469.27 79.0497 470.74 76.1597 468.8C75.1897 468.15 74.1897 467.47 73.2997 466.77C70.8097 464.82 72.9797 459.87 74.5097 457.09C75.0597 456.09 74.4797 454.85 73.3597 454.61L72.6397 454.46C71.5597 454.24 70.5097 454.86 70.1997 455.9Z" fill="#FCD2B1"/>
<path d="M91.5796 374.61L114.51 372.69C114.51 372.69 116.82 389.38 111.02 419.59C108.3 433.76 102.64 460.83 102.64 460.83C101.24 461.44 99.8096 461.6 98.3596 461.24C98.3596 461.24 97.9296 449.3 97.6696 436.44C97.4196 424.11 97.3496 410.93 96.5596 406.61C94.9496 397.8 91.5796 374.61 91.5796 374.61Z" fill="#0B4870"/>
<path d="M96.3096 374.9C98.6796 387.61 103.97 406.61 93.7796 424.45C83.5896 442.3 72.8896 460.85 72.8896 460.85C71.5096 460.91 70.2596 460.41 69.0996 459.52C69.0996 459.52 70.8896 451.43 73.4696 441.98C76.4196 431.17 80.1696 418.46 79.0996 411.83C77.0996 399.41 74.8096 382.86 75.4996 374.83C76.1996 366.81 95.0696 368.22 96.3096 374.9Z" fill="#0B4870"/>
<path d="M113.52 329.95L131.59 339.88L149.74 311.32L127.79 303.7L113.52 329.95Z" fill="#0B4870"/>
<path d="M114.67 329.09L131.57 338.38L148.54 311.67L128.01 304.54L114.67 329.09Z" fill="#D3D3D3"/>
<path d="M108.479 324.09C108.479 324.09 111.629 322.59 113.009 321.8C114.389 321.01 117.939 319.93 118.229 319.68C118.519 319.42 128.759 318.79 129.379 318.26C129.999 317.72 130.599 319.52 127.949 320.1C125.299 320.68 121.599 322.1 121.399 323.14C121.199 324.18 124.129 324.42 124.419 325.28C124.719 326.13 124.339 325.94 123.919 326.13C123.499 326.31 120.439 324.62 119.089 325.1C117.739 325.58 115.679 324.91 114.649 325.27C113.619 325.62 108.599 327.31 108.599 327.31L108.479 324.09Z" fill="#FCD2B1"/>
<path d="M114.16 326.31L115.78 325.71C115.78 325.71 113.76 320.97 112.88 321.08C111.86 321.21 110.6 321.55 110.6 321.55L114.16 326.31Z" fill="#D3D3D3"/>
<path d="M114.53 327.13C114.32 326.98 111.09 320.77 111.09 320.77L104.17 321.71L107.91 329.07L114.53 327.13Z" fill="#FCD2B1"/>
<path d="M132.48 336.3C132.48 336.3 135.12 333.92 136.4 332.93C137.68 331.94 140.08 329.01 140.43 328.84C140.78 328.67 145.37 319.26 146.11 318.89C146.86 318.51 145.4 317.25 143.82 319.52C142.24 321.8 139.46 324.72 138.4 324.51C137.34 324.3 138.25 321.44 137.56 320.83C136.87 320.22 136.9 320.65 136.57 320.97C136.23 321.3 136.64 324.84 135.66 325.92C134.68 327 134.51 329.2 133.77 330.04C133.04 330.88 129.49 334.95 129.49 334.95L132.48 336.3Z" fill="#FCD2B1"/>
<path d="M90.3497 277.61C90.3497 277.61 98.2797 274.65 101.94 280.69C105.6 286.73 105.24 298.81 101.25 300.29C97.2497 301.78 91.2497 301 89.1997 297.22C87.1497 293.44 85.3097 287.98 85.3997 284.34C85.4797 280.68 88.2597 278.66 90.3497 277.61Z" fill="#FCD2B1"/>
<path d="M100.379 300.56C100.379 300.56 99.7395 306.25 100.289 307.31C100.839 308.36 90.3895 307.31 90.3895 307.31C90.3895 307.31 89.4495 299.1 87.7795 294.26C86.1095 289.41 100.379 300.56 100.379 300.56Z" fill="#FCD2B1"/>
<path d="M87.7796 294.26C87.7796 294.26 88.1596 300.37 91.2096 299.89C94.2596 299.41 98.3396 290.48 99.6096 290.04C100.88 289.59 100.89 288.85 100.89 288.85L101.69 290.01L103.04 290.1C103.04 290.1 101.81 286.47 103.67 284.99C105.53 283.51 101.74 273.25 91.9696 276.67C91.9696 276.67 84.4596 278.74 84.7396 283.01C84.9996 287.27 86.0996 292.13 87.7796 294.26Z" fill="#0B4870"/>
<path d="M101.52 308.58C101.52 308.58 101.49 306.57 100.57 306.37C99.6596 306.18 90.4896 305.3 89.3696 305.74V308.09C89.3696 308.09 91.5296 309.41 101.52 308.58Z" fill="#D3D3D3"/>
<path d="M100.69 287.29C100.52 286.57 98.6999 284.53 97.9999 286.72C97.2999 288.91 99.0499 291.86 100.03 291.6C101.01 291.35 101.13 289.1 100.69 287.29Z" fill="#FCD2B1"/>
<path d="M74.1098 383.82C74.1098 383.82 78.9698 385.25 87.2598 386.17C95.5498 387.08 116.27 385.84 116.4 384.86C116.53 383.88 111.94 348.38 112.2 346.55C112.46 344.72 112.6 338.21 112.6 338.21C112.7 340 114.52 347.29 116.72 351.26C117.51 352.7 120.17 357.2 121.46 356.17C127.67 351.22 137.28 332.54 137.89 332.38C137.38 332.16 133.33 330.3 132.77 330.11C132.27 329.94 127.8 334.68 125.08 337.62C123.87 338.93 123.01 339.88 123.01 339.88C122.23 338.12 119.37 327.01 118.49 323.17C116.49 314.5 116.8 314.14 116.8 314.14C110.73 312.3 101.53 308.57 101.53 308.57L89.3798 308.08C89.3798 308.08 78.2298 310.53 73.8398 312.52C73.4198 312.71 73.4198 322.47 72.2798 325.03L75.9198 332.71C75.9198 332.71 78.0198 347.93 78.4598 354.69C78.6498 357.8 74.1098 383.82 74.1098 383.82Z" fill="#FFBE55"/>
<path d="M71.7599 337.7C72.0799 338.72 73.5199 339.59 74.4499 339.97C75.0499 340.21 75.7199 340.29 76.3999 340.17L76.8799 340.08L85.2099 338.53C85.2099 338.53 87.0299 317.55 73.8399 312.52C73.4799 312.64 68.8499 328.31 71.7599 337.7Z" fill="#FFBE55"/>
<path d="M88.0895 278.32C88.0895 278.32 78.1095 279.33 87.9095 294.48L88.0895 278.32Z" fill="#0B4870"/>
<path d="M141.39 309.79L142.44 307.97L134.12 305.1L133.07 306.91L141.39 309.79Z" fill="#0B4870"/>
<path d="M545.82 438.77C545.82 438.77 549.37 447.62 550.08 449.08C550.67 450.28 551.82 451.05 552.92 451.81C553.27 452.05 553.64 452.63 553.95 453.12C554.2 453.51 554.21 453.99 554.05 454.42C551.26 462.03 542.74 465.09 542.54 464.52C542.18 463.49 543.44 461.42 545.23 460.38C547.03 459.34 548.07 457.34 548.14 455.27C548.2 453.62 547.84 451.98 547.08 450.5L543.61 443.91L545.82 438.77Z" fill="#FFE3CA"/>
<path d="M533.56 449.84L531.43 459.29C530.78 462.18 531.19 465.21 532.58 467.83C533.36 469.29 532.67 471.1 531.11 471.66C526.06 473.46 516.28 476.88 515.84 476.51C513.62 474.63 519.49 471.52 523.84 468.25C526.77 466.05 527.89 455.79 528.15 447.91L532.81 449.08C533.18 449.2 533.46 449.48 533.56 449.84Z" fill="#FFE3CA"/>
<path d="M524.62 471.33C522.53 472.02 520.239 472.24 518.139 472.5C517.899 472.53 517.67 472.62 517.48 472.77C515.47 474.33 514.449 475.9 515.629 476.9C516.099 477.3 527.599 473.23 532.079 471.62C533.019 471.28 533.429 470.2 532.959 469.32L532.11 467.72C529.76 469.21 527.27 470.46 524.62 471.33Z" fill="#0B4870"/>
<path d="M529.6 344.65C535.16 345.41 539.89 351.81 538.91 358.97C538.35 363.08 534.52 377.79 530.32 389.42C528.71 393.88 529.36 398.94 532.39 402.6C532.88 403.2 533.31 403.81 533.65 404.44C535.4 407.67 542.15 426.75 546.12 439.48C545.8 441.15 544.81 443.26 543.56 443.99C536.59 433.18 525.25 413.45 523.39 410.01C522.35 408.1 521.22 405.9 520.4 403.82C515.89 397.85 516.76 364.47 517.67 357.83C518.63 350.69 524.04 343.89 529.6 344.65Z" fill="#0B4870"/>
<path d="M528.079 289.99C528.079 289.99 523.27 293.02 523.85 297.1C523.85 297.1 521.279 295.28 520.699 289.01C520.299 284.66 528.079 289.99 528.079 289.99Z" fill="#0B4870"/>
<path d="M525.31 314.85C525.15 318.23 524.6 321.83 522.6 325.16C521.61 326.8 520.21 328.28 518.57 329.35C516.93 330.43 515.09 331.08 513.3 331.33C509.69 331.84 506.33 331.18 503.28 330.09C500.22 329 497.43 327.44 494.87 325.64C494.42 325.32 494.31 324.69 494.63 324.24C494.91 323.84 495.44 323.71 495.87 323.91L495.88 323.92C498.59 325.17 501.4 326.12 504.22 326.65C507.02 327.16 509.88 327.25 512.27 326.51C514.68 325.8 516.32 324.29 517.23 322.23C518.18 320.16 518.4 317.53 518.3 314.85V314.81C518.23 312.88 519.75 311.25 521.68 311.19C523.61 311.12 525.24 312.64 525.3 314.57C525.32 314.66 525.32 314.76 525.31 314.85Z" fill="#FFE3CA"/>
<path d="M522.7 336C520.77 330.2 516.9 317.91 517.23 313.89C517.44 311.32 519.59 309.35 522.17 309.35H538.92C541.7 309.35 543.97 311.55 544.05 314.33C544.19 319.18 541.96 330.23 540.7 336.01H522.7V336Z" fill="#FFBE55"/>
<path d="M528.26 449.96C528 449.8 527.85 449.5 527.86 449.19C528.21 436.87 528.96 421.16 529.23 418.15C529.26 417.81 529.3 417.47 529.35 417.13C526.71 402.56 526.31 371.25 526.05 365.77C525.71 358.56 530.05 350.42 535.65 350.16C541.25 349.89 547.33 355.69 549.13 362.3C550.32 366.66 545.73 389.86 540.75 406.67C539.7 410.21 539.54 413.93 540.07 417.59C540.43 420.12 540.54 422.72 540.36 424.71C540.09 427.67 536.77 439.73 533.66 450.06C533.57 450.36 533.33 450.6 533.03 450.66C531.43 451.01 529.75 450.87 528.26 449.96Z" fill="#0B4870"/>
<path d="M542.62 343.36C541.75 340.93 541.49 338.32 541.86 335.77C542.71 329.83 544.18 318.65 544.05 313.9C543.98 311.36 541.9 309.35 539.36 309.35H536.88C535.93 311.54 533.93 313.24 530.81 313.24C527.7 313.24 525.69 311.54 524.75 309.35H522.42C524.96 314.78 524.04 321.94 519.68 326.11C520.49 328.97 521.17 331.86 521.68 334.19C522.37 337.36 522.07 340.65 520.82 343.64C518.68 348.78 516.98 357.02 517.49 360.28C535.11 365.27 547.3 356.43 547.3 356.43L542.62 343.36Z" fill="#FFBE55"/>
<path d="M528.08 310.5L535.68 309.7L533.28 301.38L528.36 301.99L528.08 310.5Z" fill="#FCD2B1"/>
<path d="M528.36 301.99L533.28 301.38L534.03 303.98C532.93 305.22 531.52 307.9 529.73 307.9C529.16 307.9 528.65 307.74 528.18 307.44L528.36 301.99Z" fill="#FA968C"/>
<path d="M528.19 306.01C529.86 306.01 531.66 305.17 534.15 303C535.58 301.75 536.64 299.58 536.64 298.11V289.98H524.13C524.13 289.98 523.19 294.3 524.1 298.58C524.78 301.8 526.88 306.01 528.19 306.01Z" fill="#FCD2B1"/>
<path d="M534.52 296.58C534.52 298.17 535.28 299.45 536.22 299.45C537.16 299.45 538.19 297.37 538.19 295.79C538.19 294.21 537.16 293.71 536.22 293.71C535.28 293.71 534.52 294.99 534.52 296.58Z" fill="#FCD2B1"/>
<path d="M538.18 290.97C538.18 288.43 536.12 286.38 533.58 286.38H529.36C528.15 286.38 526.98 286.06 525.95 285.48C524.46 284.63 522.58 284.92 521.56 286.3C520.46 287.79 519.99 289.79 522.77 291.63C524.16 292.55 526.18 291.53 527.53 291.97C527.61 291.97 527.69 291.95 527.77 291.95H531.49C532.78 291.95 533.77 293.01 533.81 294.3C533.83 295.12 534.5 295.77 535.33 295.77H535.5L536.1 293.86L538.18 296.66V290.97Z" fill="#0B4870"/>
<path d="M497 322.52C497 322.52 499.81 325.38 499.44 326.57C499.07 327.76 499.09 327.65 497.26 327.3C495.43 326.95 493.35 326.09 492.16 325.03C490.97 323.97 492.89 321.82 493.17 321.55C494.11 320.66 497.67 320.42 498.66 321.41C499.65 322.4 495.09 324.35 495.49 323.74C495.89 323.13 497.53 322.26 497.74 321.43C497.97 320.61 497 322.52 497 322.52Z" fill="#FCD2B1"/>
<path d="M525.06 289.84C525.48 291.7 524.86 292.71 530.95 295.61C537.04 298.51 538.96 297.27 540.86 300.39C540.86 300.39 540.03 295.22 536.67 293.45C533.31 291.68 527.48 290.52 525.61 286.41C525.61 286.41 524.77 288.58 525.06 289.84Z" fill="#0B4870"/>
<path d="M458.33 273.28L454.62 291.97L450.91 310.66C450.91 310.66 472.14 304.02 496.24 308.8L497.88 300.55L499.52 292.26C475.43 287.48 458.33 273.28 458.33 273.28Z" fill="#D3D3D3"/>
<path d="M492.88 329.25L490.75 328.24L500.39 307.8L505.79 310.35L497.62 327.68C496.71 329.6 494.8 330.16 492.88 329.25Z" fill="#0B4870"/>
<path d="M512.899 312.25L491.649 308.28L495.109 290.86L516.189 295.66L512.899 312.25Z" fill="#FCD2B1"/>
<path d="M526.23 290.19C526.23 290.19 526 296.44 520.53 299.45C520.53 299.45 522.94 294.72 522.77 291.63C522.61 288.54 526.59 288.05 526.23 290.19Z" fill="#0B4870"/>
<path d="M556.08 456.58C556.44 456.16 556.45 455.55 556.09 455.13C555.8 454.79 555.03 453.84 554.45 453.13C554.2 452.82 553.72 452.89 553.55 453.25C551.61 457.31 548.36 460.48 544.13 461.06C542.76 461.99 541.88 464.08 542.17 464.9C542.24 465.09 544.11 465.12 546.09 463.99C554.85 458.98 556.08 456.58 556.08 456.58Z" fill="#0B4870"/>
<path d="M544.27 311.51C544.31 311.97 544.31 312.23 544.32 312.57C544.32 312.89 544.32 313.2 544.31 313.51C544.29 314.13 544.24 314.73 544.17 315.34C544.03 316.55 543.81 317.75 543.49 318.94C542.81 321.3 541.8 323.63 540.29 325.68C538.78 327.73 536.82 329.46 534.65 330.7C532.48 331.95 530.15 332.73 527.83 333.13C523.18 333.91 518.67 333.54 514.4 332.64C510.12 331.75 506.03 330.39 502.09 328.76C501.58 328.55 501.33 327.96 501.55 327.45C501.74 327 502.22 326.75 502.69 326.85H502.7C506.79 327.71 510.89 328.44 514.95 328.72C516.98 328.87 518.99 328.86 520.96 328.78C522.91 328.61 524.85 328.39 526.63 327.82C528.4 327.27 530.06 326.57 531.47 325.58C532.88 324.6 534.02 323.37 534.92 321.96C535.84 320.57 536.44 318.94 536.84 317.24C537.03 316.38 537.18 315.51 537.26 314.63C537.3 314.19 537.33 313.75 537.33 313.31C537.34 313.09 537.34 312.88 537.34 312.67L537.32 312.15L537.31 311.9C537.25 309.97 538.77 308.36 540.7 308.3C542.55 308.22 544.12 309.65 544.27 311.51Z" fill="#FFE3CA"/>
<path d="M499.86 323.03C499.86 323.03 496.03 322.1 496.94 323.93C497.85 325.75 498.84 325.2 498.84 325.2L499.86 323.03Z" fill="#FCD2B1"/>
<path opacity="0.09" d="M137.46 203.53H197.47C197.47 203.53 202.58 191.9 187.6 189.85C172.62 187.81 191 179.21 175.34 177.85C159.68 176.49 171.61 190.87 155.6 188.83C139.6 186.79 130.44 193.94 135.36 194.62C140.27 195.3 95.15 203.53 137.46 203.53Z" fill="#2A94F4"/>
<path opacity="0.09" d="M221.89 152.27H281.89C281.89 152.27 287 140.64 272.02 138.59C257.04 136.55 275.42 127.95 259.76 126.59C244.1 125.23 256.03 139.61 240.02 137.57C224.02 135.53 214.86 142.68 219.78 143.36C224.7 144.04 179.59 152.27 221.89 152.27Z" fill="#2A94F4"/>
<path opacity="0.09" d="M425.22 252.35H485.23C485.23 252.35 490.34 240.72 475.36 238.67C460.38 236.63 478.76 228.03 463.1 226.67C447.44 225.31 459.37 239.69 443.36 237.65C427.36 235.61 418.2 242.76 423.12 243.44C428.04 244.12 382.92 252.35 425.22 252.35Z" fill="#2A94F4"/>
<path opacity="0.09" d="M346.38 152.27H406.39C406.39 152.27 411.5 140.64 396.52 138.59C381.54 136.55 399.92 127.95 384.26 126.59C368.6 125.23 380.53 139.61 364.52 137.57C348.51 135.53 339.36 142.68 344.28 143.36C349.2 144.04 304.08 152.27 346.38 152.27Z" fill="#2A94F4"/>
<path d="M488.1 554.69C534.271 554.69 571.7 553.745 571.7 552.58C571.7 551.415 534.271 550.47 488.1 550.47C441.929 550.47 404.5 551.415 404.5 552.58C404.5 553.745 441.929 554.69 488.1 554.69Z" fill="#D3D3D3"/>
<path d="M423.78 581.12C469.951 581.12 507.38 580.175 507.38 579.01C507.38 577.845 469.951 576.9 423.78 576.9C377.609 576.9 340.18 577.845 340.18 579.01C340.18 580.175 377.609 581.12 423.78 581.12Z" fill="#D3D3D3"/>
<path d="M263.69 554.69C309.861 554.69 347.29 553.745 347.29 552.58C347.29 551.415 309.861 550.47 263.69 550.47C217.519 550.47 180.09 551.415 180.09 552.58C180.09 553.745 217.519 554.69 263.69 554.69Z" fill="#D3D3D3"/>
<path d="M83.6 554.69C129.771 554.69 167.2 553.745 167.2 552.58C167.2 551.415 129.771 550.47 83.6 550.47C37.429 550.47 0 551.415 0 552.58C0 553.745 37.429 554.69 83.6 554.69Z" fill="#D3D3D3"/>
<path d="M199.37 581.12C245.541 581.12 282.97 580.175 282.97 579.01C282.97 577.845 245.541 576.9 199.37 576.9C153.199 576.9 115.77 577.845 115.77 579.01C115.77 580.175 153.199 581.12 199.37 581.12Z" fill="#D3D3D3"/>
</svg>
